<svg width="2560" height="640" viewBox="0 0 2560 640" fill="none" xmlns="http://www.w3.org/2000/svg">
<g clip-path="url(#clip0_29_2)">
<rect width="2560" height="640" fill="#161723"/>
<g opacity="0.5">
<g opacity="0.2">
<path d="M2711.43 200.016L2631.48 106.751C2627.9 103.163 2623.51 100.451 2618.68 98.8348C2613.84 97.2185 2608.68 96.7427 2603.62 97.4458L2552.84 104.472C2543.81 105.794 2535.7 110.722 2530.61 118.143L2516.48 138.469L2518.59 151.83L2502.38 171.918L2493.99 170.826L2493.12 172.071C2488.59 178.564 2486.63 186.411 2487.71 194.219L2490.15 241.96L2476.06 287.026L2494.46 307.58L2515.9 353.752L2608.81 352.022L2644.32 338.999L2650.04 336.915L2682.19 327.795C2685.38 326.956 2703.12 307.315 2705.84 305.472C2705.84 305.472 2715.6 204.184 2711.43 200.016Z" fill="#787BB4"/>
<path d="M2516.84 260.852L2620.24 214.491L2573.42 131.376L2516.4 138.481L2494.02 170.813L2516.84 260.852Z" fill="#BABCE1"/>
<path d="M2645.78 248.502L2646.3 188.656L2573.42 131.376L2600.46 204.123C2602.85 210.542 2600 217.782 2593.81 220.994L2516.84 260.852L2476.06 287.026C2472.55 301.525 2472.57 306.657 2479.04 319.443C2483.16 328.143 2486.76 335.639 2486.76 335.639C2486.76 335.639 2488.82 340.788 2492.31 345.084C2496.81 350.388 2500.85 352.689 2508.24 353.753L2611.53 288.329L2640.8 260.056C2643.94 257.017 2645.74 252.901 2645.78 248.502Z" fill="white"/>
<path d="M2537.34 109.137C2541.04 103.97 2546.9 100.688 2553.42 100.345L2611.01 97.1764C2616.98 96.8281 2624.42 99.6915 2628.65 103.794L2680.49 155.627L2646.3 188.656L2573.42 131.376L2516.47 138.549L2537.34 109.137ZM2494.81 315.047L2491.53 332.881C2491.06 335.448 2491.18 338.085 2491.86 340.605C2492.55 343.124 2493.79 345.464 2495.51 347.458C2497.22 349.452 2499.36 351.051 2501.77 352.14C2504.18 353.23 2506.8 353.784 2509.46 353.763L2603.04 352.705C2612.06 352.583 2618.85 344.444 2617.16 335.765L2611.53 288.329L2551.62 285.013C2544.5 284.618 2537.44 286.156 2531.1 289.501L2502.49 304.583C2498.47 306.748 2495.59 310.588 2494.81 315.047Z" fill="#787BB4"/>
</g>
<g opacity="0.2">
<path d="M2498.83 -13.0319L2418.87 -106.297C2415.3 -109.885 2410.91 -112.597 2406.07 -114.213C2401.23 -115.829 2396.07 -116.305 2391.02 -115.602L2340.23 -108.576C2331.2 -107.254 2323.09 -102.325 2318.01 -94.9047L2303.88 -74.5789L2305.99 -61.2176L2289.78 -41.1297L2281.38 -42.2219L2280.52 -40.9764C2275.99 -34.484 2274.02 -26.6364 2275.11 -18.8291L2277.54 28.9123L2263.46 73.9784L2281.86 94.5318L2303.29 140.704L2396.21 138.974L2431.72 125.951L2437.43 123.867L2469.58 114.748C2472.78 113.909 2490.51 94.2671 2493.24 92.4245C2493.24 92.4245 2503 -8.86374 2498.83 -13.0319Z" fill="#787BB4"/>
<path d="M2304.23 47.8043L2407.64 1.44326L2360.82 -81.6719L2303.8 -74.5663L2281.41 -42.235L2304.23 47.8043Z" fill="#BABCE1"/>
<path d="M2478.5 110.626L2507.3 89.5467L2487.13 69.378L2460.42 84.7431C2455.71 87.5684 2450.15 88.3201 2444.8 87.0076L2398.93 75.2813L2373.89 139.781L2393.5 139.084C2395.33 139.033 2397.09 138.648 2398.86 137.997L2437.5 123.801L2469.65 114.681C2472.85 113.843 2475.77 112.468 2478.5 110.626Z" fill="#463A68"/>
<path d="M2433.18 35.4545L2433.69 -24.3915L2360.82 -81.672L2387.86 -8.92485C2390.24 -2.50599 2387.4 4.73417 2381.2 7.94644L2304.23 47.8043L2263.46 73.9783C2259.94 88.4774 2259.96 93.6095 2266.43 106.395C2270.56 115.095 2274.16 122.591 2274.16 122.591C2274.16 122.591 2276.21 127.741 2279.7 132.036C2284.2 137.34 2288.25 139.641 2295.63 140.705L2398.93 75.2813L2428.19 47.0084C2431.34 43.9697 2433.14 39.853 2433.18 35.4545Z" fill="white"/>
<path d="M2507.3 89.5468L2487.13 69.378L2433.69 -24.3914L2467.82 -57.3544L2496.46 -28.8481C2504.19 -21.1168 2510.01 -11.8024 2513.38 -1.44277L2517.94 12.2596C2520.29 19.3462 2521.44 26.7639 2521.34 34.2163L2521.23 46.6121C2521.16 57.3953 2518.51 68.0106 2513.51 77.6036L2507.3 89.5468Z" fill="#463A68"/>
<path d="M2324.73 -103.911C2328.44 -109.077 2334.3 -112.359 2340.81 -112.703L2398.41 -115.871C2404.38 -116.22 2411.81 -113.356 2416.05 -109.254L2467.88 -57.4205L2433.69 -24.3914L2360.82 -81.6719L2303.86 -74.499L2324.73 -103.911ZM2282.2 101.999L2278.93 119.833C2278.46 122.4 2278.57 125.037 2279.26 127.557C2279.95 130.077 2281.19 132.416 2282.9 134.41C2284.61 136.404 2286.75 138.003 2289.16 139.093C2291.57 140.182 2294.2 140.736 2296.85 140.715L2390.44 139.657C2399.46 139.535 2406.24 131.396 2404.55 122.717L2398.93 75.2813L2339.01 71.9648C2331.9 71.5701 2324.83 73.1087 2318.5 76.4531L2289.89 91.5352C2285.87 93.6999 2282.99 97.5407 2282.2 101.999Z" fill="#787BB4"/>
</g>
<g opacity="0.2">
<path d="M2603.25 501.95L2523.29 408.685C2519.71 405.097 2515.33 402.386 2510.49 400.769C2505.65 399.153 2500.49 398.677 2495.43 399.38L2444.65 406.406C2435.62 407.728 2427.51 412.657 2422.43 420.078L2408.3 440.403L2410.4 453.765L2394.19 473.852L2385.8 472.76L2384.94 474.006C2380.41 480.498 2378.44 488.346 2379.52 496.153L2381.96 543.894L2367.87 588.961L2386.28 609.514L2407.71 655.687L2500.63 653.956L2536.13 640.933L2541.85 638.85L2574 629.73C2577.2 628.891 2594.93 609.249 2597.66 607.407C2597.66 607.407 2607.41 506.118 2603.25 501.95Z" fill="#787BB4"/>
<path d="M2408.65 562.787L2512.05 516.426L2465.24 433.31L2408.21 440.416L2385.83 472.747L2408.65 562.787Z" fill="#BABCE1"/>
<path d="M2582.92 625.608L2611.72 604.529L2591.55 584.36L2564.83 599.726C2560.13 602.551 2554.56 603.303 2549.22 601.99L2503.35 590.264L2478.31 654.763L2497.91 654.066C2499.74 654.015 2501.51 653.631 2503.28 652.979L2541.92 638.784L2574.07 629.664C2577.26 628.825 2580.19 627.451 2582.92 625.608Z" fill="#463A68"/>
<path d="M2537.59 550.437L2538.11 490.591L2465.24 433.31L2492.27 506.058C2494.66 512.476 2491.82 519.717 2485.62 522.929L2408.65 562.787L2367.87 588.961C2364.36 603.46 2364.38 608.592 2370.85 621.378C2374.98 630.078 2378.57 637.573 2378.57 637.573C2378.57 637.573 2380.63 642.723 2384.12 647.019C2388.62 652.323 2392.67 654.624 2400.05 655.687L2503.35 590.264L2532.61 561.991C2535.76 558.952 2537.56 554.835 2537.59 550.437Z" fill="white"/>
<path d="M2611.72 604.529L2591.55 584.36L2538.11 490.591L2572.23 457.628L2600.87 486.134C2608.6 493.866 2614.42 503.18 2617.79 513.54L2622.35 527.242C2624.7 534.329 2625.85 541.746 2625.76 549.199L2625.65 561.594C2625.58 572.378 2622.93 582.993 2617.92 592.586L2611.72 604.529Z" fill="#463A68"/>
<path d="M2429.15 411.071C2432.86 405.905 2438.72 402.623 2445.23 402.279L2502.83 399.111C2508.8 398.763 2516.23 401.626 2520.47 405.728L2572.3 457.562L2538.11 490.591L2465.24 433.31L2408.28 440.483L2429.15 411.071ZM2386.62 616.982L2383.34 634.815C2382.88 637.382 2382.99 640.02 2383.68 642.539C2384.36 645.059 2385.61 647.399 2387.32 649.393C2389.03 651.386 2391.17 652.985 2393.58 654.075C2395.99 655.165 2398.62 655.719 2401.27 655.698L2494.86 654.64C2503.88 654.517 2510.66 646.378 2508.97 637.699L2503.35 590.264L2443.43 586.947C2436.31 586.552 2429.25 588.091 2422.91 591.435L2394.3 606.518C2390.28 608.682 2387.4 612.523 2386.62 616.982Z" fill="#787BB4"/>
</g>
<g opacity="0.2">
<path d="M2390.64 288.903L2310.69 195.637C2307.11 192.049 2302.72 189.338 2297.88 187.721C2293.05 186.105 2287.89 185.629 2282.83 186.333L2232.05 193.359C2223.02 194.68 2214.9 199.609 2209.82 207.03L2195.69 227.356L2197.8 240.717L2181.59 260.805L2173.2 259.713L2172.33 260.958C2167.8 267.45 2165.83 275.298 2166.92 283.105L2169.36 330.847L2155.27 375.913L2173.67 396.466L2195.11 442.639L2288.02 440.908L2323.53 427.885L2329.24 425.802L2361.4 416.682C2364.59 415.843 2382.32 396.202 2385.05 394.359C2385.05 394.359 2394.81 293.071 2390.64 288.903Z" fill="#787BB4"/>
<path d="M2196.04 349.739L2299.45 303.378L2252.63 220.263L2195.61 227.368L2173.22 259.699L2196.04 349.739Z" fill="#BABCE1"/>
<path d="M2370.32 412.56L2399.11 391.481L2378.94 371.312L2352.23 386.678C2347.53 389.503 2341.96 390.255 2336.61 388.942L2290.74 377.216L2265.71 441.715L2285.31 441.018C2287.14 440.967 2288.91 440.583 2290.67 439.932L2329.31 425.736L2361.47 416.616C2364.66 415.777 2367.59 414.403 2370.32 412.56Z" fill="#463A68"/>
<path d="M2324.99 337.389L2325.51 277.543L2252.63 220.262L2279.67 293.01C2282.06 299.428 2279.21 306.669 2273.01 309.881L2196.05 349.739L2155.27 375.913C2151.75 390.412 2151.78 395.544 2158.24 408.33C2162.37 417.03 2165.97 424.525 2165.97 424.525C2165.97 424.525 2168.03 429.675 2171.52 433.971C2176.01 439.275 2180.06 441.576 2187.44 442.639L2290.74 377.216L2320.01 348.943C2323.15 345.904 2324.95 341.787 2324.99 337.389Z" fill="white"/>
<path d="M2399.11 391.481L2378.94 371.312L2325.51 277.543L2359.63 244.58L2388.27 273.086C2396 280.818 2401.82 290.132 2405.19 300.492L2409.75 314.194C2412.1 321.281 2413.25 328.698 2413.15 336.151L2413.05 348.547C2412.97 359.33 2410.33 369.945 2405.32 379.538L2399.11 391.481Z" fill="#463A68"/>
<path d="M2216.54 198.024C2220.25 192.857 2226.11 189.575 2232.62 189.232L2290.22 186.063C2296.19 185.715 2303.63 188.578 2307.86 192.68L2359.7 244.514L2325.51 277.543L2252.63 220.263L2195.68 227.435L2216.54 198.024ZM2174.01 403.934L2170.74 421.767C2170.27 424.335 2170.39 426.972 2171.07 429.491C2171.76 432.011 2173 434.351 2174.71 436.345C2176.43 438.339 2178.56 439.937 2180.97 441.027C2183.39 442.117 2186.01 442.671 2188.67 442.65L2282.25 441.592C2291.27 441.47 2298.05 433.33 2296.37 424.652L2290.74 377.216L2230.83 373.899C2223.71 373.505 2216.64 375.043 2210.31 378.388L2181.7 393.47C2177.68 395.634 2174.8 399.475 2174.01 403.934Z" fill="#787BB4"/>
</g>
<g opacity="0.2">
<path d="M2177.81 76.0765L2097.86 -17.1888C2094.28 -20.7768 2089.9 -23.4883 2085.06 -25.1046C2080.22 -26.7208 2075.06 -27.1966 2070 -26.4935L2019.22 -19.4673C2010.19 -18.1456 2002.08 -13.217 1997 -5.79627L1982.86 14.5295L1984.97 27.8908L1968.76 47.9787L1960.37 46.8865L1959.51 48.132C1954.97 54.6244 1953.01 62.472 1954.09 70.2793L1956.53 118.021L1942.44 163.087L1960.85 183.64L1982.28 229.813L2075.19 228.082L2110.7 215.059L2116.42 212.976L2148.57 203.856C2151.76 203.017 2169.5 183.376 2172.23 181.533C2172.23 181.533 2181.98 80.2447 2177.81 76.0765Z" fill="#787BB4"/>
<path d="M1983.22 136.913L2086.62 90.5517L2039.8 7.43653L1982.78 14.5421L1960.4 46.8734L1983.22 136.913Z" fill="#BABCE1"/>
<path d="M2157.49 199.734L2186.29 178.655L2166.12 158.486L2139.4 173.852C2134.7 176.677 2129.13 177.429 2123.79 176.116L2077.91 164.39L2052.88 228.889L2072.48 228.192C2074.31 228.141 2076.08 227.757 2077.85 227.105L2116.49 212.91L2148.64 203.79C2151.83 202.951 2154.76 201.577 2157.49 199.734Z" fill="#463A68"/>
<path d="M2112.16 124.563L2112.68 64.7169L2039.8 7.43643L2066.84 80.1835C2069.23 86.6024 2066.39 93.8426 2060.19 97.0548L1983.22 136.913L1942.44 163.087C1938.93 177.586 1938.95 182.718 1945.42 195.504C1949.55 204.204 1953.14 211.699 1953.14 211.699C1953.14 211.699 1955.2 216.849 1958.69 221.145C1963.19 226.449 1967.24 228.75 1974.62 229.813L2077.91 164.39L2107.18 136.117C2110.33 133.078 2112.13 128.961 2112.16 124.563Z" fill="white"/>
<path d="M2186.29 178.655L2166.12 158.486L2112.68 64.717L2146.8 31.754L2175.44 60.2603C2183.17 67.9916 2188.99 77.306 2192.36 87.6656L2196.92 101.368C2199.27 108.455 2200.42 115.872 2200.33 123.325L2200.22 135.72C2200.15 146.504 2197.5 157.119 2192.49 166.712L2186.29 178.655Z" fill="#463A68"/>
<path d="M2003.72 -14.8024C2007.43 -19.969 2013.29 -23.2509 2019.8 -23.5945L2077.4 -26.7629C2083.37 -27.1113 2090.8 -24.2478 2095.04 -20.1457L2146.87 31.6879L2112.68 64.717L2039.8 7.43651L1982.85 14.6094L2003.72 -14.8024ZM1961.19 191.108L1957.91 208.941C1957.45 211.509 1957.56 214.146 1958.25 216.665C1958.93 219.185 1960.18 221.525 1961.89 223.519C1963.6 225.513 1965.74 227.111 1968.15 228.201C1970.56 229.291 1973.19 229.845 1975.84 229.824L2069.43 228.766C2078.45 228.644 2085.23 220.504 2083.54 211.825L2077.91 164.39L2018 161.073C2010.88 160.679 2003.82 162.217 1997.48 165.561L1968.87 180.644C1964.85 182.808 1961.97 186.649 1961.19 191.108Z" fill="#787BB4"/>
</g>
<g opacity="0.2">
<path d="M1964.99 -136.75L1885.03 -230.015C1881.46 -233.603 1877.07 -236.314 1872.23 -237.931C1867.39 -239.547 1862.24 -240.023 1857.18 -239.32L1806.39 -232.293C1797.36 -230.972 1789.25 -226.043 1784.17 -218.622L1770.04 -198.297L1772.15 -184.935L1755.94 -164.847L1747.55 -165.94L1746.68 -164.694C1742.15 -158.202 1740.18 -150.354 1741.27 -142.547L1743.7 -94.8054L1729.62 -49.7392L1748.02 -29.1859L1769.46 16.9867L1862.37 15.2563L1897.88 2.23315L1903.59 0.149732L1935.74 -8.97012C1938.94 -9.80897 1956.67 -29.4505 1959.4 -31.2931C1959.4 -31.2931 1969.16 -132.581 1964.99 -136.75Z" fill="#787BB4"/>
<path d="M1944.66 -13.092L1973.46 -34.1709L1953.29 -54.3397L1926.58 -38.9745C1921.87 -36.1493 1916.31 -35.3975 1910.96 -36.71L1865.09 -48.4363L1840.05 16.0633L1859.66 15.3661C1861.49 15.3153 1863.25 14.9306 1865.02 14.2794L1903.66 0.0836176L1935.81 -9.03623C1939.01 -9.87508 1941.94 -11.2494 1944.66 -13.092Z" fill="#463A68"/>
<path d="M1899.34 -88.2631L1899.85 -148.109L1826.98 -205.39L1854.02 -132.643C1856.4 -126.224 1853.56 -118.983 1847.36 -115.771L1770.39 -75.9134L1729.62 -49.7393C1726.1 -35.2403 1726.12 -30.1081 1732.59 -17.3224C1736.72 -8.62243 1740.32 -1.12674 1740.32 -1.12674C1740.32 -1.12674 1742.38 4.02297 1745.86 8.31861C1750.36 13.6227 1754.41 15.9237 1761.79 16.9871L1865.09 -48.4364L1894.36 -76.7093C1897.5 -79.748 1899.3 -83.8646 1899.34 -88.2631Z" fill="white"/>
<path d="M1790.89 -227.628C1794.6 -232.795 1800.46 -236.077 1806.97 -236.421L1864.57 -239.589C1870.54 -239.937 1877.97 -237.074 1882.21 -232.972L1934.04 -181.138L1899.85 -148.109L1826.98 -205.39L1770.02 -198.217L1790.89 -227.628ZM1748.36 -21.7183L1745.09 -3.88474C1744.62 -1.31752 1744.73 1.31972 1745.42 3.83929C1746.11 6.35885 1747.35 8.69881 1749.06 10.6926C1750.77 12.6865 1752.91 14.2852 1755.32 15.3749C1757.73 16.4647 1760.36 17.0188 1763.01 16.9977L1856.6 15.9396C1865.62 15.8175 1872.4 7.67831 1870.71 -1.00058L1865.09 -48.4363L1805.17 -51.7528C1798.06 -52.1475 1790.99 -50.609 1784.66 -47.2646L1756.05 -32.1824C1752.03 -30.0177 1749.15 -26.177 1748.36 -21.7183Z" fill="#787BB4"/>
</g>
<g opacity="0.2">
<path d="M2292.83 591.753L2212.87 498.488C2209.29 494.9 2204.91 492.188 2200.07 490.572C2195.23 488.956 2190.07 488.48 2185.01 489.183L2134.23 496.209C2125.2 497.531 2117.09 502.459 2112.01 509.88L2097.88 530.206L2099.98 543.567L2083.77 563.655L2075.38 562.563L2074.52 563.809C2069.99 570.301 2068.02 578.149 2069.1 585.956L2071.54 633.697L2057.45 678.763L2075.86 699.317L2097.29 745.489L2190.21 743.759L2225.71 730.736L2231.43 728.652L2263.58 719.532C2266.78 718.694 2284.51 699.052 2287.24 697.209C2287.24 697.209 2296.99 595.921 2292.83 591.753Z" fill="#787BB4"/>
<path d="M2098.23 652.589L2201.63 606.228L2154.82 523.113L2097.79 530.219L2075.41 562.55L2098.23 652.589Z" fill="#BABCE1"/>
<path d="M2272.5 715.411L2301.3 694.332L2281.13 674.163L2254.42 689.528C2249.71 692.354 2244.14 693.105 2238.8 691.793L2192.93 680.066L2167.89 744.566L2187.49 743.869C2189.32 743.818 2191.09 743.433 2192.86 742.782L2231.5 728.586L2263.65 719.467C2266.84 718.628 2269.77 717.253 2272.5 715.411Z" fill="#463A68"/>
<path d="M2227.17 640.24L2227.69 580.394L2154.82 523.113L2181.85 595.86C2184.24 602.279 2181.4 609.519 2175.2 612.732L2098.23 652.589L2057.45 678.763C2053.94 693.263 2053.96 698.395 2060.43 711.18C2064.56 719.88 2068.15 727.376 2068.15 727.376C2068.15 727.376 2070.21 732.526 2073.7 736.821C2078.2 742.125 2082.25 744.426 2089.63 745.49L2192.93 680.066L2222.19 651.794C2225.34 648.755 2227.14 644.638 2227.17 640.24Z" fill="white"/>
<path d="M2301.3 694.332L2281.13 674.163L2227.69 580.394L2261.81 547.431L2290.45 575.937C2298.18 583.668 2304 592.983 2307.37 603.342L2311.93 617.045C2314.28 624.131 2315.43 631.549 2315.34 639.001L2315.23 651.397C2315.16 662.18 2312.51 672.796 2307.5 682.389L2301.3 694.332Z" fill="#463A68"/>
<path d="M2118.73 500.874C2122.44 495.708 2128.3 492.426 2134.81 492.082L2192.41 488.914C2198.38 488.565 2205.81 491.429 2210.05 495.531L2261.88 547.365L2227.69 580.394L2154.82 523.113L2097.86 530.286L2118.73 500.874ZM2076.2 706.784L2072.92 724.618C2072.46 727.185 2072.57 729.822 2073.26 732.342C2073.94 734.862 2075.19 737.201 2076.9 739.195C2078.61 741.189 2080.75 742.788 2083.16 743.878C2085.57 744.967 2088.2 745.521 2090.85 745.5L2184.44 744.442C2193.46 744.32 2200.24 736.181 2198.55 727.502L2192.93 680.066L2133.01 676.75C2125.89 676.355 2118.83 677.894 2112.49 681.238L2083.88 696.32C2079.86 698.485 2076.98 702.326 2076.2 706.784Z" fill="#787BB4"/>
</g>
<g opacity="0.2">
<path d="M2080.22 378.705L2000.27 285.44C1996.69 281.852 1992.3 279.141 1987.46 277.524C1982.63 275.908 1977.47 275.432 1972.41 276.135L1921.63 283.161C1912.6 284.483 1904.48 289.412 1899.4 296.833L1885.27 317.158L1887.38 330.52L1871.17 350.607L1862.78 349.515L1861.91 350.761C1857.38 357.253 1855.41 365.101 1856.5 372.908L1858.94 420.649L1844.85 465.716L1863.25 486.269L1884.69 532.442L1977.6 530.711L2013.11 517.688L2018.82 515.605L2050.98 506.485C2054.17 505.646 2071.9 486.004 2074.63 484.162C2074.63 484.162 2084.39 382.873 2080.22 378.705Z" fill="#787BB4"/>
<path d="M1885.63 439.542L1989.03 393.18L1942.21 310.065L1885.19 317.171L1862.8 349.502L1885.63 439.542Z" fill="#BABCE1"/>
<path d="M2059.9 502.363L2088.69 481.284L2068.52 461.115L2041.81 476.48C2037.11 479.306 2031.54 480.057 2026.19 478.745L1980.32 467.018L1955.28 531.518L1974.89 530.821C1976.72 530.77 1978.49 530.385 1980.25 529.734L2018.89 515.538L2051.05 506.419C2054.24 505.58 2057.17 504.205 2059.9 502.363Z" fill="#463A68"/>
<path d="M2014.57 427.192L2015.09 367.346L1942.21 310.065L1969.25 382.812C1971.63 389.231 1968.79 396.471 1962.59 399.684L1885.63 439.541L1844.85 465.716C1841.33 480.215 1841.36 485.347 1847.82 498.132C1851.95 506.832 1855.55 514.328 1855.55 514.328C1855.55 514.328 1857.61 519.478 1861.1 523.773C1865.59 529.078 1869.64 531.379 1877.02 532.442L1980.32 467.018L2009.59 438.746C2012.73 435.707 2014.53 431.59 2014.57 427.192Z" fill="white"/>
<path d="M2088.69 481.284L2068.52 461.115L2015.09 367.346L2049.21 334.383L2077.85 362.889C2085.58 370.62 2091.4 379.935 2094.77 390.294L2099.33 403.997C2101.68 411.083 2102.83 418.501 2102.73 425.954L2102.63 438.349C2102.55 449.132 2099.91 459.748 2094.9 469.341L2088.69 481.284Z" fill="#463A68"/>
<path d="M1906.12 287.826C1909.83 282.66 1915.69 279.378 1922.2 279.034L1979.8 275.866C1985.77 275.518 1993.21 278.381 1997.44 282.483L2049.28 334.317L2015.09 367.346L1942.21 310.065L1885.26 317.238L1906.12 287.826ZM1863.59 493.737L1860.32 511.57C1859.85 514.137 1859.97 516.775 1860.65 519.294C1861.34 521.814 1862.58 524.154 1864.29 526.147C1866.01 528.141 1868.14 529.74 1870.55 530.83C1872.97 531.92 1875.59 532.474 1878.25 532.453L1971.83 531.394C1980.85 531.272 1987.63 523.133 1985.95 514.454L1980.32 467.019L1920.41 463.702C1913.29 463.307 1906.22 464.846 1899.89 468.19L1871.28 483.272C1867.26 485.437 1864.38 489.278 1863.59 493.737Z" fill="#787BB4"/>
</g>
<g opacity="0.2">
<path d="M1867.4 165.879L1787.44 72.614C1783.86 69.026 1779.48 66.3145 1774.64 64.6982C1769.8 63.0819 1764.64 62.6061 1759.58 63.3092L1708.8 70.3354C1699.77 71.6571 1691.66 76.5857 1686.58 84.0065L1672.45 104.332L1674.55 117.694L1658.34 137.781L1649.95 136.689L1649.09 137.935C1644.55 144.427 1642.59 152.275 1643.67 160.082L1646.11 207.823L1632.02 252.89L1650.43 273.443L1671.86 319.616L1764.78 317.885L1800.28 304.862L1806 302.779L1838.15 293.659C1841.35 292.82 1859.08 273.178 1861.81 271.336C1861.81 271.336 1871.56 170.047 1867.4 165.879Z" fill="#787BB4"/>
<path d="M1672.8 226.715L1776.2 180.354L1729.39 97.2393L1672.36 104.345L1649.98 136.676L1672.8 226.715Z" fill="#BABCE1"/>
<path d="M1847.07 289.537L1875.87 268.458L1855.7 248.289L1828.98 263.654C1824.28 266.48 1818.71 267.231 1813.37 265.919L1767.5 254.192L1742.46 318.692L1762.06 317.995C1763.89 317.944 1765.66 317.559 1767.43 316.908L1806.07 302.712L1838.22 293.593C1841.41 292.754 1844.34 291.379 1847.07 289.537Z" fill="#463A68"/>
<path d="M1801.74 214.366L1802.26 154.52L1729.39 97.2392L1756.42 169.986C1758.81 176.405 1755.97 183.645 1749.77 186.858L1672.8 226.715L1632.02 252.889C1628.51 267.389 1628.53 272.521 1635 285.306C1639.13 294.006 1642.72 301.502 1642.72 301.502C1642.72 301.502 1644.78 306.652 1648.27 310.947C1652.77 316.251 1656.82 318.552 1664.2 319.616L1767.5 254.192L1796.76 225.919C1799.91 222.881 1801.71 218.764 1801.74 214.366Z" fill="white"/>
<path d="M1875.87 268.458L1855.7 248.289L1802.26 154.52L1836.38 121.557L1865.02 150.063C1872.75 157.794 1878.57 167.109 1881.94 177.468L1886.5 191.171C1888.85 198.257 1890 205.675 1889.91 213.127L1889.8 225.523C1889.73 236.306 1887.08 246.922 1882.07 256.515L1875.87 268.458Z" fill="#463A68"/>
<path d="M1693.3 75.0003C1697.01 69.8337 1702.87 66.5519 1709.38 66.2082L1766.98 63.0398C1772.95 62.6915 1780.38 65.5549 1784.62 69.6571L1836.45 121.491L1802.26 154.52L1729.38 97.2392L1672.43 104.412L1693.3 75.0003ZM1650.77 280.91L1647.49 298.744C1647.03 301.311 1647.14 303.949 1647.83 306.468C1648.51 308.988 1649.76 311.328 1651.47 313.321C1653.18 315.315 1655.32 316.914 1657.73 318.004C1660.14 319.094 1662.77 319.648 1665.42 319.627L1759.01 318.568C1768.03 318.446 1774.81 310.307 1773.12 301.628L1767.49 254.192L1707.58 250.876C1700.46 250.481 1693.4 252.02 1687.06 255.364L1658.45 270.446C1654.43 272.611 1651.55 276.452 1650.77 280.91Z" fill="#787BB4"/>
</g>
<g opacity="0.2">
<path d="M1654.57 -46.9469L1574.61 -140.212C1571.04 -143.8 1566.65 -146.512 1561.81 -148.128C1556.97 -149.744 1551.82 -150.22 1546.76 -149.517L1495.97 -142.491C1486.94 -141.169 1478.83 -136.24 1473.75 -128.82L1459.62 -108.494L1461.73 -95.1325L1445.52 -75.0447L1437.13 -76.1368L1436.26 -74.8913C1431.73 -68.3989 1429.76 -60.5513 1430.85 -52.7441L1433.28 -5.00262L1419.2 40.0635L1437.6 60.6169L1459.04 106.789L1551.95 105.059L1587.46 92.0359L1593.17 89.9525L1625.32 80.8326C1628.52 79.9938 1646.25 60.3522 1648.98 58.5096C1648.98 58.5096 1658.74 -42.7787 1654.57 -46.9469Z" fill="#787BB4"/>
<path d="M1459.97 13.8894L1563.38 -32.4717L1516.56 -115.587L1459.54 -108.481L1437.15 -76.1499L1459.97 13.8894Z" fill="#BABCE1"/>
<path d="M1634.24 76.7107L1663.04 55.6318L1642.87 35.4631L1616.16 50.8282C1611.46 53.6535 1605.89 54.4052 1600.54 53.0927L1554.67 41.3664L1529.63 105.866L1549.24 105.169C1551.07 105.118 1552.83 104.733 1554.6 104.082L1593.24 89.8864L1625.39 80.7665C1628.59 79.9277 1631.52 78.5533 1634.24 76.7107Z" fill="#463A68"/>
<path d="M1588.92 1.5396L1589.43 -58.3064L1516.56 -115.587L1543.6 -42.8398C1545.98 -36.4209 1543.14 -29.1807 1536.94 -25.9685L1459.97 13.8893L1419.2 40.0634C1415.68 54.5625 1415.7 59.6946 1422.17 72.4803C1426.3 81.1803 1429.9 88.676 1429.9 88.676C1429.9 88.676 1431.96 93.8257 1435.44 98.1213C1439.94 103.425 1443.99 105.726 1451.37 106.79L1554.67 41.3664L1583.94 13.0934C1587.08 10.0548 1588.88 5.93809 1588.92 1.5396Z" fill="white"/>
<path d="M1663.04 55.6318L1642.87 35.4631L1589.43 -58.3063L1623.56 -91.2693L1652.2 -62.7631C1659.93 -55.0317 1665.75 -45.7173 1669.12 -35.3577L1673.68 -21.6554C1676.03 -14.5687 1677.18 -7.151 1677.08 0.301422L1676.97 12.6971C1676.9 23.4804 1674.26 34.0957 1669.25 43.6887L1663.04 55.6318Z" fill="#463A68"/>
<path d="M1480.47 -137.826C1484.18 -142.992 1490.04 -146.274 1496.55 -146.618L1554.15 -149.786C1560.12 -150.135 1567.55 -147.271 1571.79 -143.169L1623.62 -91.3354L1589.43 -58.3063L1516.56 -115.587L1459.6 -108.414L1480.47 -137.826ZM1437.94 68.0844L1434.67 85.918C1434.2 88.4852 1434.31 91.1225 1435 93.642C1435.69 96.1616 1436.93 98.5015 1438.64 100.495C1440.35 102.489 1442.49 104.088 1444.9 105.178C1447.31 106.267 1449.94 106.822 1452.59 106.8L1546.18 105.742C1555.2 105.62 1561.98 97.481 1560.29 88.8022L1554.67 41.3664L1494.75 38.0499C1487.64 37.6552 1480.57 39.1938 1474.24 42.5381L1445.63 57.6203C1441.61 59.785 1438.73 63.6257 1437.94 68.0844Z" fill="#787BB4"/>
</g>
</g>
<mask id="mask0_29_2" style="mask-type:alpha" maskUnits="userSpaceOnUse" x="164" y="146" width="353" height="354">
<path d="M269.399 486.619L431.455 499.056C438.15 499.066 444.753 497.502 450.732 494.491C456.711 491.479 461.899 487.105 465.876 481.72L505.825 427.701C512.86 418.028 515.624 405.842 513.237 394.159L506.893 361.961L492.258 351.446L488.049 317.528L496.793 310.706L496.403 308.734C494.393 298.433 488.74 289.262 480.323 282.981L432.711 240.645L402.813 185.37L366.381 183.36L302.815 160.245L219.149 248.685L198.923 294.036L195.657 301.322L174.803 339.889C172.667 343.658 175.054 378.581 174.301 382.853C174.301 382.853 261.61 486.619 269.399 486.619Z" fill="#9B9B9B"/>
<path d="M390.25 247.932L339.372 387.878L461.354 421.797L506.956 361.873L496.78 310.744L390.25 247.932Z" fill="#E6E6E6"/>
<path d="M170.532 352.075L164.125 398.682H201.812L211.737 359.361C213.37 352.326 217.767 346.421 223.923 342.653L277.188 310.744L238.872 227.078L221.536 246.047C219.903 247.806 218.646 249.816 217.641 252.077L195.657 301.448L174.803 340.015C172.667 343.783 171.286 347.803 170.532 352.075Z" fill="#636363"/>
<path d="M283.594 379.963L340 436.369L461.354 421.797L367.386 379.084C359.095 375.315 354.824 365.893 357.462 357.1L390.25 247.932L402.812 185.37C392.26 168.536 387.361 163.763 369.271 157.858C357.211 153.587 346.784 149.944 346.784 149.944C346.784 149.944 340 147.055 332.714 146.301C323.543 145.547 317.639 147.18 309.85 153.085L277.188 310.744V364.512C277.188 370.29 279.449 375.818 283.594 379.963Z" fill="white"/>
<path d="M164.125 398.682H201.812L340 436.369V499.056L286.609 499.182C272.163 499.182 257.967 495.915 245.027 489.383L227.817 480.84C218.923 476.414 210.817 470.558 203.822 463.504L192.139 451.821C181.957 441.677 174.297 429.285 169.778 415.641L164.125 398.682Z" fill="#636363"/>
<path d="M515.624 408.857C517.131 417.148 514.87 425.691 509.217 432.098L459.344 488.88C454.193 494.785 444.646 499.056 436.857 499.181H340V436.369L461.354 421.796L506.83 361.873L515.624 408.857ZM358.969 176.702L345.025 156.979C343.015 154.143 340.404 151.784 337.379 150.072C334.353 148.359 330.988 147.335 327.521 147.071C324.055 146.807 320.573 147.31 317.323 148.545C314.073 149.78 311.136 151.716 308.719 154.215L223.797 242.655C215.631 251.198 217.139 265.142 226.937 271.675L277.187 310.744L335.352 257.856C342.261 251.575 347.286 243.535 349.924 234.49L361.859 193.661C363.492 187.883 362.487 181.601 358.969 176.702Z" fill="#9B9B9B"/>
</mask>
<g mask="url(#mask0_29_2)">
<g filter="url(#filter0_f_29_2)">
<rect x="-22" y="53" width="1052" height="898" fill="#00FFCC"/>
<ellipse cx="370.5" cy="322.5" rx="257.5" ry="307.5" fill="#0B17FF"/>
<path d="M712.5 99L776.823 300.767H984.978L816.577 425.466L880.9 627.233L712.5 502.534L544.1 627.233L608.423 425.466L440.022 300.767H648.177L712.5 99Z" fill="#00C8FF"/>
</g>
<g filter="url(#filter1_f_29_2)">
<rect x="-22" y="53" width="1052" height="898" fill="#00FFCC"/>
<ellipse cx="370.5" cy="322.5" rx="257.5" ry="307.5" fill="#0B17FF"/>
<path d="M712.5 99L776.823 300.767H984.978L816.577 425.466L880.9 627.233L712.5 502.534L544.1 627.233L608.423 425.466L440.022 300.767H648.177L712.5 99Z" fill="#00C8FF"/>
</g>
<g filter="url(#filter2_f_29_2)">
<rect x="-3" y="120.5" width="456.775" height="389.909" fill="#00FFCC"/>
<ellipse cx="167.422" cy="237.516" rx="111.806" ry="133.516" fill="#0B17FF"/>
<ellipse cx="413.178" cy="456.134" rx="268.985" ry="66.8663" fill="#480BFF"/>
<path d="M315.918 140.473L343.847 228.079H434.227L361.108 282.223L389.037 369.83L315.918 315.686L242.799 369.83L270.728 282.223L197.609 228.079H287.989L315.918 140.473Z" fill="#00C8FF"/>
</g>
<g opacity="0.56">
<path d="M269.399 486.619L431.455 499.056C438.15 499.066 444.753 497.502 450.732 494.491C456.711 491.479 461.899 487.105 465.876 481.72L505.825 427.701C512.86 418.028 515.624 405.842 513.237 394.159L506.893 361.961L492.258 351.446L488.049 317.528L496.793 310.706L496.403 308.734C494.393 298.433 488.74 289.262 480.323 282.981L432.711 240.645L402.813 185.37L366.381 183.36L302.815 160.245L219.149 248.685L198.923 294.036L195.657 301.322L174.803 339.889C172.667 343.658 175.054 378.581 174.301 382.853C174.301 382.853 261.61 486.619 269.399 486.619Z" fill="#9B9B9B"/>
<path d="M390.25 247.932L339.372 387.878L461.354 421.797L506.956 361.873L496.78 310.744L390.25 247.932Z" fill="#E6E6E6"/>
<path d="M170.532 352.075L164.125 398.682H201.812L211.737 359.361C213.37 352.326 217.767 346.421 223.923 342.653L277.188 310.744L238.872 227.078L221.536 246.047C219.903 247.806 218.646 249.816 217.641 252.077L195.657 301.448L174.803 340.015C172.667 343.783 171.286 347.803 170.532 352.075Z" fill="#636363"/>
<path d="M283.594 379.963L340 436.369L461.354 421.797L367.386 379.084C359.095 375.315 354.824 365.893 357.462 357.1L390.25 247.932L402.812 185.37C392.26 168.536 387.361 163.763 369.271 157.858C357.211 153.587 346.784 149.944 346.784 149.944C346.784 149.944 340 147.055 332.714 146.301C323.543 145.547 317.639 147.18 309.85 153.085L277.188 310.744V364.512C277.188 370.29 279.449 375.818 283.594 379.963Z" fill="white"/>
<path d="M164.125 398.682H201.812L340 436.369V499.056L286.609 499.182C272.163 499.182 257.967 495.915 245.027 489.383L227.817 480.84C218.923 476.414 210.817 470.558 203.822 463.504L192.139 451.821C181.957 441.677 174.297 429.285 169.778 415.641L164.125 398.682Z" fill="#636363"/>
<path d="M515.624 408.857C517.131 417.148 514.87 425.691 509.217 432.098L459.344 488.88C454.193 494.785 444.646 499.056 436.857 499.181H340V436.369L461.354 421.796L506.83 361.873L515.624 408.857ZM358.969 176.702L345.025 156.979C343.015 154.143 340.404 151.784 337.379 150.072C334.353 148.359 330.988 147.335 327.521 147.071C324.055 146.807 320.573 147.31 317.323 148.545C314.073 149.78 311.136 151.716 308.719 154.215L223.797 242.655C215.631 251.198 217.139 265.142 226.937 271.675L277.187 310.744L335.352 257.856C342.261 251.575 347.286 243.535 349.924 234.49L361.859 193.661C363.492 187.883 362.487 181.601 358.969 176.702Z" fill="#9B9B9B"/>
</g>
</g>
<path d="M635.6 279.76C635.6 282.107 636.56 283.973 638.48 285.36C640.4 286.64 642.96 287.653 646.16 288.4C649.36 289.147 652.827 289.84 656.56 290.48C660.4 291.013 664.187 291.76 667.92 292.72C671.76 293.68 675.227 295.067 678.32 296.88C681.52 298.587 684.08 300.987 686 304.08C687.92 307.067 688.88 311.013 688.88 315.92C688.88 321.467 687.227 326.427 683.92 330.8C680.72 335.173 676.24 338.587 670.48 341.04C664.827 343.387 658.267 344.56 650.8 344.56C640.027 344.56 630.96 342.107 623.6 337.2C616.24 332.187 611.76 324.347 610.16 313.68H634.64C635.28 317.627 637.093 320.667 640.08 322.8C643.067 324.933 646.853 326 651.44 326C655.707 326 658.907 325.2 661.04 323.6C663.28 322 664.4 319.92 664.4 317.36C664.4 315.013 663.44 313.2 661.52 311.92C659.707 310.64 657.2 309.627 654 308.88C650.907 308.133 647.493 307.493 643.76 306.96C640.133 306.32 636.453 305.52 632.72 304.56C629.093 303.6 625.733 302.267 622.64 300.56C619.547 298.747 617.04 296.293 615.12 293.2C613.2 290 612.24 285.947 612.24 281.04C612.24 276.24 613.52 271.707 616.08 267.44C618.64 263.173 622.48 259.76 627.6 257.2C632.827 254.533 639.28 253.2 646.96 253.2C653.893 253.2 660.08 254.32 665.52 256.56C671.067 258.693 675.6 262.053 679.12 266.64C682.747 271.227 684.933 277.147 685.68 284.4H661.36C660.613 279.92 658.96 276.72 656.4 274.8C653.84 272.88 650.427 271.92 646.16 271.92C642.96 271.92 640.4 272.667 638.48 274.16C636.56 275.547 635.6 277.413 635.6 279.76ZM704.395 314V235.92H728.875V310.96C728.875 315.12 729.675 318.32 731.275 320.56C732.982 322.8 736.448 323.92 741.675 323.92H746.315V342.32C744.928 342.853 742.955 343.333 740.395 343.76C737.835 344.293 734.902 344.56 731.595 344.56C722.422 344.56 715.595 342 711.115 336.88C706.635 331.653 704.395 324.027 704.395 314ZM693.835 274.48V255.92H746.475V274.48H693.835ZM827.205 289.84L813.285 298.8C813.285 290.373 811.792 283.92 808.805 279.44C805.818 274.96 801.552 272.72 796.005 272.72C790.352 272.72 786.032 274.96 783.045 279.44C780.058 283.92 778.565 290.427 778.565 298.96C778.565 307.387 780.112 313.84 783.205 318.32C786.405 322.8 790.992 325.04 796.965 325.04C801.018 325.04 804.378 324.133 807.045 322.32C809.712 320.507 811.685 317.627 812.965 313.68H838.565C836.325 323.6 831.472 331.227 824.005 336.56C816.538 341.893 807.525 344.56 796.965 344.56C788.005 344.56 780.272 342.747 773.765 339.12C767.365 335.387 762.405 330.107 758.885 323.28C755.472 316.453 753.765 308.347 753.765 298.96C753.765 289.147 755.472 280.88 758.885 274.16C762.405 267.333 767.312 262.16 773.605 258.64C780.005 255.013 787.472 253.2 796.005 253.2C804.538 253.2 811.952 255.013 818.245 258.64C824.538 262.267 829.392 267.493 832.805 274.32C836.218 281.04 837.925 289.093 837.925 298.48V303.92H763.685V289.84H827.205ZM851.351 342V255.92H875.831V342H851.351ZM851.351 247.28V226.8H875.831V247.28H851.351ZM892.289 342V255.92H916.769V342H892.289ZM916.769 292.56H910.209C910.742 283.493 912.395 276.08 915.169 270.32C917.942 264.56 921.569 260.293 926.049 257.52C930.635 254.64 935.862 253.2 941.729 253.2C947.275 253.2 952.182 254.32 956.449 256.56C960.822 258.8 964.235 262.267 966.689 266.96C969.249 271.547 970.529 277.413 970.529 284.56V342H946.049V289.52C946.049 285.893 945.569 282.853 944.609 280.4C943.649 277.947 942.155 276.133 940.129 274.96C938.209 273.68 935.755 273.04 932.769 273.04C930.315 273.04 928.075 273.52 926.049 274.48C924.129 275.44 922.475 276.827 921.089 278.64C919.702 280.347 918.635 282.427 917.889 284.88C917.142 287.227 916.769 289.787 916.769 292.56Z" fill="white"/>
<path d="M631.952 422.576C628.784 422.576 626.048 421.904 623.744 420.56C621.44 419.184 619.664 417.232 618.416 414.704C617.168 412.176 616.544 409.184 616.544 405.728C616.544 402.24 617.168 399.232 618.416 396.704C619.664 394.176 621.44 392.224 623.744 390.848C626.048 389.472 628.784 388.784 631.952 388.784C635.12 388.784 637.856 389.472 640.16 390.848C642.464 392.224 644.24 394.176 645.488 396.704C646.736 399.232 647.36 402.24 647.36 405.728C647.36 409.184 646.736 412.176 645.488 414.704C644.24 417.232 642.464 419.184 640.16 420.56C637.856 421.904 635.12 422.576 631.952 422.576ZM631.952 418.784C634.224 418.784 636.176 418.256 637.808 417.2C639.44 416.144 640.688 414.64 641.552 412.688C642.416 410.736 642.848 408.416 642.848 405.728C642.848 403.008 642.416 400.672 641.552 398.72C640.688 396.736 639.44 395.216 637.808 394.16C636.176 393.104 634.224 392.576 631.952 392.576C629.68 392.576 627.728 393.104 626.096 394.16C624.464 395.216 623.216 396.736 622.352 398.72C621.488 400.672 621.056 403.008 621.056 405.728C621.056 408.416 621.488 410.736 622.352 412.688C623.216 414.64 624.464 416.144 626.096 417.2C627.728 418.256 629.68 418.784 631.952 418.784ZM664.69 395.888C666.962 395.888 668.898 396.416 670.498 397.472C672.13 398.528 673.378 400.048 674.242 402.032C675.106 404.016 675.538 406.4 675.538 409.184C675.538 413.504 674.562 416.816 672.61 419.12C670.658 421.424 668.018 422.576 664.69 422.576C661.746 422.576 659.394 421.44 657.634 419.168C655.906 416.864 655.042 413.536 655.042 409.184C655.042 406.496 655.426 404.16 656.194 402.176C656.994 400.192 658.114 398.656 659.554 397.568C661.026 396.448 662.738 395.888 664.69 395.888ZM664.402 399.536C662.162 399.536 660.45 400.368 659.266 402.032C658.114 403.664 657.538 406.048 657.538 409.184C657.538 412.288 658.13 414.688 659.314 416.384C660.53 418.08 662.226 418.928 664.402 418.928C666.61 418.928 668.29 418.096 669.442 416.432C670.626 414.736 671.218 412.32 671.218 409.184C671.218 406.112 670.626 403.744 669.442 402.08C668.258 400.384 666.578 399.536 664.402 399.536ZM657.538 432.56H653.314V396.512H657.538V432.56ZM680.969 422V396.512H685.193V422H680.969ZM680.969 393.104V387.44H685.193V393.104H680.969ZM691.891 422V396.512H696.115V422H691.891ZM696.115 406.928H694.099C694.259 404.496 694.755 402.464 695.587 400.832C696.451 399.2 697.603 397.968 699.043 397.136C700.483 396.304 702.131 395.888 703.987 395.888C705.811 395.888 707.363 396.24 708.643 396.944C709.923 397.616 710.899 398.624 711.571 399.968C712.275 401.312 712.627 402.976 712.627 404.96V422H708.403V405.824C708.403 404.544 708.195 403.44 707.779 402.512C707.395 401.552 706.787 400.816 705.955 400.304C705.155 399.76 704.115 399.488 702.835 399.488C701.779 399.488 700.835 399.712 700.003 400.16C699.171 400.576 698.467 401.136 697.891 401.84C697.315 402.544 696.867 403.344 696.547 404.24C696.259 405.104 696.115 406 696.115 406.928ZM719.36 422V396.512H723.584V422H719.36ZM719.36 393.104V387.44H723.584V393.104H719.36ZM740.65 422.576C738.218 422.576 736.122 422.048 734.362 420.992C732.634 419.936 731.306 418.416 730.378 416.432C729.45 414.416 728.986 412.032 728.986 409.28C728.986 406.4 729.45 403.968 730.378 401.984C731.338 400 732.698 398.496 734.458 397.472C736.218 396.416 738.282 395.888 740.65 395.888C743.082 395.888 745.162 396.432 746.89 397.52C748.65 398.576 749.994 400.112 750.922 402.128C751.85 404.112 752.314 406.496 752.314 409.28C752.314 412.128 751.834 414.544 750.874 416.528C749.946 418.512 748.602 420.016 746.842 421.04C745.114 422.064 743.05 422.576 740.65 422.576ZM740.65 418.928C743.018 418.928 744.826 418.096 746.074 416.432C747.354 414.768 747.994 412.384 747.994 409.28C747.994 406.176 747.354 403.776 746.074 402.08C744.826 400.384 743.018 399.536 740.65 399.536C738.282 399.536 736.458 400.384 735.178 402.08C733.93 403.744 733.306 406.144 733.306 409.28C733.306 412.352 733.946 414.736 735.226 416.432C736.506 418.096 738.314 418.928 740.65 418.928ZM757.751 422V396.512H761.975V422H757.751ZM761.975 406.928H759.959C760.119 404.496 760.615 402.464 761.447 400.832C762.311 399.2 763.463 397.968 764.903 397.136C766.343 396.304 767.991 395.888 769.847 395.888C771.671 395.888 773.223 396.24 774.503 396.944C775.783 397.616 776.759 398.624 777.431 399.968C778.135 401.312 778.487 402.976 778.487 404.96V422H774.263V405.824C774.263 404.544 774.055 403.44 773.639 402.512C773.255 401.552 772.647 400.816 771.815 400.304C771.015 399.76 769.975 399.488 768.695 399.488C767.639 399.488 766.695 399.712 765.863 400.16C765.031 400.576 764.327 401.136 763.751 401.84C763.175 402.544 762.727 403.344 762.407 404.24C762.119 405.104 761.975 406 761.975 406.928ZM789.107 404.816H784.883C785.171 402.928 785.763 401.328 786.659 400.016C787.555 398.672 788.755 397.648 790.259 396.944C791.763 396.24 793.555 395.888 795.635 395.888C797.907 395.888 799.795 396.304 801.299 397.136C802.803 397.968 803.923 399.136 804.659 400.64C805.395 402.112 805.763 403.84 805.763 405.824V415.856C805.763 417.328 805.827 418.544 805.955 419.504C806.115 420.464 806.355 421.296 806.675 422H802.211C801.891 421.36 801.699 420.56 801.635 419.6C801.571 418.64 801.539 417.696 801.539 416.768V405.92C801.539 403.872 801.027 402.304 800.003 401.216C799.011 400.096 797.427 399.536 795.251 399.536C793.427 399.536 792.003 400.016 790.979 400.976C789.987 401.904 789.363 403.184 789.107 404.816ZM802.163 406.496V409.664C799.315 409.664 796.979 409.808 795.155 410.096C793.363 410.352 791.971 410.736 790.979 411.248C789.987 411.728 789.299 412.304 788.915 412.976C788.531 413.648 788.339 414.384 788.339 415.184C788.339 416.368 788.787 417.296 789.683 417.968C790.611 418.608 791.811 418.928 793.283 418.928C794.851 418.928 796.259 418.56 797.507 417.824C798.755 417.088 799.731 416.112 800.435 414.896C801.171 413.648 801.539 412.304 801.539 410.864H803.795C803.667 412.944 803.251 414.736 802.547 416.24C801.875 417.712 800.995 418.912 799.907 419.84C798.851 420.768 797.715 421.456 796.499 421.904C795.283 422.352 794.067 422.576 792.851 422.576C791.091 422.576 789.539 422.304 788.195 421.76C786.883 421.216 785.859 420.4 785.123 419.312C784.387 418.224 784.019 416.88 784.019 415.28C784.019 413.52 784.483 412.032 785.411 410.816C786.371 409.568 787.795 408.624 789.683 407.984C791.475 407.376 793.347 406.976 795.299 406.784C797.251 406.592 799.539 406.496 802.163 406.496ZM813.264 414.656V390.656H817.488V414.656C817.488 416.192 817.792 417.328 818.4 418.064C819.04 418.8 820.288 419.168 822.144 419.168H823.008V422.192C822.784 422.32 822.416 422.416 821.904 422.48C821.424 422.544 820.88 422.576 820.272 422.576C817.904 422.576 816.144 421.936 814.992 420.656C813.84 419.344 813.264 417.344 813.264 414.656ZM809.712 399.872V396.512H823.104V399.872H809.712ZM847.094 406.832L844.694 409.088C844.694 406.048 844.054 403.696 842.774 402.032C841.526 400.368 839.75 399.536 837.446 399.536C835.078 399.536 833.27 400.384 832.022 402.08C830.774 403.744 830.15 406.144 830.15 409.28C830.15 412.352 830.806 414.736 832.118 416.432C833.43 418.096 835.286 418.928 837.686 418.928C839.478 418.928 840.982 418.496 842.198 417.632C843.446 416.768 844.294 415.456 844.742 413.696H849.158C848.454 416.672 847.078 418.896 845.03 420.368C843.014 421.84 840.566 422.576 837.686 422.576C835.222 422.576 833.094 422.048 831.302 420.992C829.542 419.936 828.182 418.416 827.222 416.432C826.294 414.416 825.83 412.032 825.83 409.28C825.83 406.4 826.294 403.968 827.222 401.984C828.182 400 829.526 398.496 831.254 397.472C833.014 396.416 835.078 395.888 837.446 395.888C839.846 395.888 841.894 396.416 843.59 397.472C845.318 398.528 846.646 400.032 847.574 401.984C848.502 403.904 848.966 406.224 848.966 408.944V410H827.606V406.832H847.094ZM864.146 422.576C861.906 422.576 859.97 422.048 858.338 420.992C856.706 419.936 855.458 418.416 854.594 416.432C853.73 414.416 853.298 412.032 853.298 409.28C853.298 404.96 854.274 401.648 856.226 399.344C858.178 397.04 860.818 395.888 864.146 395.888C867.09 395.888 869.426 397.04 871.154 399.344C872.914 401.616 873.794 404.928 873.794 409.28C873.794 411.968 873.394 414.32 872.594 416.336C871.826 418.32 870.722 419.856 869.282 420.944C867.842 422.032 866.13 422.576 864.146 422.576ZM864.434 418.928C866.674 418.928 868.37 418.112 869.522 416.48C870.706 414.816 871.298 412.416 871.298 409.28C871.298 406.176 870.69 403.776 869.474 402.08C868.29 400.384 866.61 399.536 864.434 399.536C862.226 399.536 860.53 400.384 859.346 402.08C858.194 403.744 857.618 406.144 857.618 409.28C857.618 412.352 858.21 414.736 859.394 416.432C860.61 418.096 862.29 418.928 864.434 418.928ZM871.298 422V387.44H875.522V422H871.298ZM895.604 397.328C895.604 398.48 895.876 399.408 896.42 400.112C896.996 400.816 897.764 401.376 898.724 401.792C899.684 402.176 900.756 402.496 901.94 402.752C903.124 403.008 904.34 403.264 905.588 403.52C906.868 403.744 908.1 404.048 909.284 404.432C910.468 404.816 911.54 405.344 912.5 406.016C913.46 406.688 914.212 407.568 914.756 408.656C915.332 409.744 915.62 411.12 915.62 412.784C915.62 414.864 915.092 416.64 914.036 418.112C913.012 419.584 911.588 420.704 909.764 421.472C907.972 422.208 905.908 422.576 903.572 422.576C901.236 422.576 899.156 422.224 897.332 421.52C895.54 420.784 894.036 419.696 892.82 418.256C891.636 416.784 890.804 414.96 890.324 412.784H894.932C895.476 414.736 896.468 416.224 897.908 417.248C899.38 418.272 901.284 418.784 903.62 418.784C906.084 418.784 907.94 418.288 909.188 417.296C910.468 416.304 911.108 414.992 911.108 413.36C911.108 412.112 910.82 411.104 910.244 410.336C909.7 409.568 908.948 408.976 907.988 408.56C907.028 408.112 905.956 407.76 904.772 407.504C903.588 407.216 902.356 406.944 901.076 406.688C899.828 406.432 898.612 406.128 897.428 405.776C896.244 405.392 895.172 404.88 894.212 404.24C893.252 403.6 892.484 402.752 891.908 401.696C891.364 400.64 891.092 399.28 891.092 397.616C891.092 396.048 891.524 394.592 892.388 393.248C893.252 391.904 894.5 390.832 896.132 390.032C897.796 389.2 899.828 388.784 902.228 388.784C904.34 388.784 906.26 389.136 907.988 389.84C909.748 390.544 911.22 391.632 912.404 393.104C913.588 394.544 914.372 396.432 914.756 398.768H910.1C909.588 396.592 908.644 395.024 907.268 394.064C905.924 393.072 904.212 392.576 902.132 392.576C900.084 392.576 898.484 393.008 897.332 393.872C896.18 394.736 895.604 395.888 895.604 397.328ZM931.15 422.576C928.718 422.576 926.622 422.048 924.862 420.992C923.134 419.936 921.806 418.416 920.878 416.432C919.95 414.416 919.486 412.032 919.486 409.28C919.486 406.4 919.95 403.968 920.878 401.984C921.838 400 923.198 398.496 924.958 397.472C926.718 396.416 928.782 395.888 931.15 395.888C933.582 395.888 935.662 396.432 937.39 397.52C939.15 398.576 940.494 400.112 941.422 402.128C942.35 404.112 942.814 406.496 942.814 409.28C942.814 412.128 942.334 414.544 941.374 416.528C940.446 418.512 939.102 420.016 937.342 421.04C935.614 422.064 933.55 422.576 931.15 422.576ZM931.15 418.928C933.518 418.928 935.326 418.096 936.574 416.432C937.854 414.768 938.494 412.384 938.494 409.28C938.494 406.176 937.854 403.776 936.574 402.08C935.326 400.384 933.518 399.536 931.15 399.536C928.782 399.536 926.958 400.384 925.678 402.08C924.43 403.744 923.806 406.144 923.806 409.28C923.806 412.352 924.446 414.736 925.726 416.432C927.006 418.096 928.814 418.928 931.15 418.928ZM948.251 422V387.44H952.475V422H948.251ZM959.173 422V396.512H963.397V422H959.173ZM959.173 393.104V387.44H963.397V393.104H959.173ZM979.646 422.576C977.406 422.576 975.47 422.048 973.838 420.992C972.206 419.936 970.958 418.416 970.094 416.432C969.23 414.416 968.798 412.032 968.798 409.28C968.798 404.96 969.774 401.648 971.726 399.344C973.678 397.04 976.318 395.888 979.646 395.888C982.59 395.888 984.926 397.04 986.654 399.344C988.414 401.616 989.294 404.928 989.294 409.28C989.294 411.968 988.894 414.32 988.094 416.336C987.326 418.32 986.222 419.856 984.782 420.944C983.342 422.032 981.63 422.576 979.646 422.576ZM979.934 418.928C982.174 418.928 983.87 418.112 985.022 416.48C986.206 414.816 986.798 412.416 986.798 409.28C986.798 406.176 986.19 403.776 984.974 402.08C983.79 400.384 982.11 399.536 979.934 399.536C977.726 399.536 976.03 400.384 974.846 402.08C973.694 403.744 973.118 406.144 973.118 409.28C973.118 412.352 973.71 414.736 974.894 416.432C976.11 418.096 977.79 418.928 979.934 418.928ZM986.798 422V387.44H991.022V422H986.798ZM995.879 412.16H1000.29C1000.49 414.208 1001.05 415.824 1001.97 417.008C1002.93 418.192 1004.33 418.784 1006.15 418.784C1008.01 418.784 1009.45 418.128 1010.47 416.816C1011.49 415.504 1012.01 413.68 1012.01 411.344V389.36H1016.42V410.864C1016.42 414.48 1015.49 417.344 1013.64 419.456C1011.81 421.536 1009.32 422.576 1006.15 422.576C1003.11 422.576 1000.68 421.632 998.855 419.744C997.063 417.856 996.071 415.328 995.879 412.16ZM1026.9 397.328C1026.9 398.48 1027.17 399.408 1027.72 400.112C1028.29 400.816 1029.06 401.376 1030.02 401.792C1030.98 402.176 1032.05 402.496 1033.24 402.752C1034.42 403.008 1035.64 403.264 1036.88 403.52C1038.16 403.744 1039.4 404.048 1040.58 404.432C1041.76 404.816 1042.84 405.344 1043.8 406.016C1044.76 406.688 1045.51 407.568 1046.05 408.656C1046.63 409.744 1046.92 411.12 1046.92 412.784C1046.92 414.864 1046.39 416.64 1045.33 418.112C1044.31 419.584 1042.88 420.704 1041.06 421.472C1039.27 422.208 1037.2 422.576 1034.87 422.576C1032.53 422.576 1030.45 422.224 1028.63 421.52C1026.84 420.784 1025.33 419.696 1024.12 418.256C1022.93 416.784 1022.1 414.96 1021.62 412.784H1026.23C1026.77 414.736 1027.76 416.224 1029.2 417.248C1030.68 418.272 1032.58 418.784 1034.92 418.784C1037.38 418.784 1039.24 418.288 1040.48 417.296C1041.76 416.304 1042.4 414.992 1042.4 413.36C1042.4 412.112 1042.12 411.104 1041.54 410.336C1041 409.568 1040.24 408.976 1039.28 408.56C1038.32 408.112 1037.25 407.76 1036.07 407.504C1034.88 407.216 1033.65 406.944 1032.37 406.688C1031.12 406.432 1029.91 406.128 1028.72 405.776C1027.54 405.392 1026.47 404.88 1025.51 404.24C1024.55 403.6 1023.78 402.752 1023.2 401.696C1022.66 400.64 1022.39 399.28 1022.39 397.616C1022.39 396.048 1022.82 394.592 1023.68 393.248C1024.55 391.904 1025.8 390.832 1027.43 390.032C1029.09 389.2 1031.12 388.784 1033.52 388.784C1035.64 388.784 1037.56 389.136 1039.28 389.84C1041.04 390.544 1042.52 391.632 1043.7 393.104C1044.88 394.544 1045.67 396.432 1046.05 398.768H1041.4C1040.88 396.592 1039.94 395.024 1038.56 394.064C1037.22 393.072 1035.51 392.576 1033.43 392.576C1031.38 392.576 1029.78 393.008 1028.63 393.872C1027.48 394.736 1026.9 395.888 1026.9 397.328ZM1065.43 397.328C1065.43 398.48 1065.7 399.408 1066.25 400.112C1066.82 400.816 1067.59 401.376 1068.55 401.792C1069.51 402.176 1070.58 402.496 1071.77 402.752C1072.95 403.008 1074.17 403.264 1075.42 403.52C1076.7 403.744 1077.93 404.048 1079.11 404.432C1080.3 404.816 1081.37 405.344 1082.33 406.016C1083.29 406.688 1084.04 407.568 1084.58 408.656C1085.16 409.744 1085.45 411.12 1085.45 412.784C1085.45 414.864 1084.92 416.64 1083.86 418.112C1082.84 419.584 1081.42 420.704 1079.59 421.472C1077.8 422.208 1075.74 422.576 1073.4 422.576C1071.06 422.576 1068.98 422.224 1067.16 421.52C1065.37 420.784 1063.86 419.696 1062.65 418.256C1061.46 416.784 1060.63 414.96 1060.15 412.784H1064.76C1065.3 414.736 1066.3 416.224 1067.74 417.248C1069.21 418.272 1071.11 418.784 1073.45 418.784C1075.91 418.784 1077.77 418.288 1079.02 417.296C1080.3 416.304 1080.94 414.992 1080.94 413.36C1080.94 412.112 1080.65 411.104 1080.07 410.336C1079.53 409.568 1078.78 408.976 1077.82 408.56C1076.86 408.112 1075.78 407.76 1074.6 407.504C1073.42 407.216 1072.18 406.944 1070.9 406.688C1069.66 406.432 1068.44 406.128 1067.26 405.776C1066.07 405.392 1065 404.88 1064.04 404.24C1063.08 403.6 1062.31 402.752 1061.74 401.696C1061.19 400.64 1060.92 399.28 1060.92 397.616C1060.92 396.048 1061.35 394.592 1062.22 393.248C1063.08 391.904 1064.33 390.832 1065.96 390.032C1067.62 389.2 1069.66 388.784 1072.06 388.784C1074.17 388.784 1076.09 389.136 1077.82 389.84C1079.58 390.544 1081.05 391.632 1082.23 393.104C1083.42 394.544 1084.2 396.432 1084.58 398.768H1079.93C1079.42 396.592 1078.47 395.024 1077.1 394.064C1075.75 393.072 1074.04 392.576 1071.96 392.576C1069.91 392.576 1068.31 393.008 1067.16 393.872C1066.01 394.736 1065.43 395.888 1065.43 397.328ZM1090.99 422V389.36H1095.41V422H1090.99ZM1102.23 410.096H1094.16V406.496H1101.99C1104.42 406.496 1106.31 405.888 1107.65 404.672C1108.99 403.456 1109.67 401.808 1109.67 399.728C1109.67 397.648 1108.99 396 1107.65 394.784C1106.31 393.568 1104.47 392.96 1102.13 392.96H1094.16V389.36H1102.18C1104.64 389.36 1106.77 389.776 1108.56 390.608C1110.39 391.44 1111.78 392.624 1112.74 394.16C1113.73 395.696 1114.23 397.536 1114.23 399.68C1114.23 402.976 1113.14 405.536 1110.96 407.36C1108.79 409.184 1105.87 410.096 1102.23 410.096ZM1120.99 414.176V410.624H1137.84V414.176H1120.99ZM1140.39 422L1130.45 396.512L1129.39 393.344H1129.59L1128.53 396.512L1118.59 422H1114.23L1127.04 389.36H1132.13L1144.99 422H1140.39ZM1147.28 410.72V407.12H1160.05V410.72H1147.28ZM1167.17 394.784C1167.17 392.096 1167.73 390.112 1168.85 388.832C1170 387.52 1171.74 386.864 1174.08 386.864C1174.62 386.864 1175.09 386.912 1175.47 387.008C1175.89 387.072 1176.21 387.152 1176.43 387.248V390.272H1176C1174.14 390.272 1172.91 390.64 1172.3 391.376C1171.7 392.112 1171.39 393.248 1171.39 394.784V422H1167.17V394.784ZM1163.62 399.872V396.512H1176.43V399.872H1163.62ZM1179.79 422V396.512H1184.02V422H1179.79ZM1179.79 393.104V387.44H1184.02V393.104H1179.79ZM1190.74 422V396.512H1194.96V422H1190.74ZM1194.96 407.744H1193.04C1193.23 404.992 1193.76 402.752 1194.62 401.024C1195.52 399.264 1196.64 397.968 1197.98 397.136C1199.36 396.304 1200.86 395.888 1202.5 395.888C1203.01 395.888 1203.47 395.952 1203.89 396.08C1204.34 396.176 1204.67 396.32 1204.9 396.512V400.304C1204.54 400.176 1204.14 400.096 1203.7 400.064C1203.25 400 1202.77 399.968 1202.26 399.968C1200.98 399.968 1199.87 400.16 1198.94 400.544C1198.05 400.896 1197.3 401.424 1196.69 402.128C1196.11 402.832 1195.68 403.664 1195.39 404.624C1195.1 405.552 1194.96 406.592 1194.96 407.744ZM1211.76 403.04C1211.76 404.064 1212.05 404.848 1212.63 405.392C1213.23 405.936 1214.03 406.352 1215.03 406.64C1216.02 406.928 1217.11 407.168 1218.29 407.36C1219.47 407.52 1220.64 407.728 1221.79 407.984C1222.98 408.24 1224.07 408.624 1225.06 409.136C1226.05 409.616 1226.83 410.304 1227.41 411.2C1228.02 412.096 1228.32 413.296 1228.32 414.8C1228.32 416.368 1227.89 417.744 1227.03 418.928C1226.16 420.08 1224.96 420.976 1223.43 421.616C1221.89 422.256 1220.11 422.576 1218.1 422.576C1215.09 422.576 1212.58 421.856 1210.56 420.416C1208.58 418.944 1207.35 416.704 1206.87 413.696H1211.09C1211.38 415.456 1212.15 416.816 1213.39 417.776C1214.67 418.736 1216.29 419.216 1218.24 419.216C1220.16 419.216 1221.62 418.832 1222.61 418.064C1223.6 417.264 1224.1 416.272 1224.1 415.088C1224.1 414.096 1223.79 413.328 1223.19 412.784C1222.61 412.24 1221.83 411.84 1220.83 411.584C1219.87 411.296 1218.8 411.056 1217.62 410.864C1216.47 410.672 1215.31 410.448 1214.16 410.192C1213.01 409.936 1211.94 409.568 1210.95 409.088C1209.99 408.576 1209.2 407.872 1208.59 406.976C1208.02 406.048 1207.73 404.832 1207.73 403.328C1207.73 402.016 1208.07 400.8 1208.74 399.68C1209.41 398.56 1210.43 397.648 1211.81 396.944C1213.19 396.24 1214.91 395.888 1216.99 395.888C1218.85 395.888 1220.5 396.192 1221.94 396.8C1223.41 397.408 1224.63 398.368 1225.59 399.68C1226.55 400.992 1227.15 402.704 1227.41 404.816H1223.19C1222.87 402.832 1222.16 401.424 1221.07 400.592C1219.99 399.76 1218.55 399.344 1216.75 399.344C1215.19 399.344 1213.95 399.696 1213.06 400.4C1212.19 401.104 1211.76 401.984 1211.76 403.04ZM1233.92 414.656V390.656H1238.14V414.656C1238.14 416.192 1238.45 417.328 1239.06 418.064C1239.7 418.8 1240.94 419.168 1242.8 419.168H1243.66V422.192C1243.44 422.32 1243.07 422.416 1242.56 422.48C1242.08 422.544 1241.54 422.576 1240.93 422.576C1238.56 422.576 1236.8 421.936 1235.65 420.656C1234.5 419.344 1233.92 417.344 1233.92 414.656ZM1230.37 399.872V396.512H1243.76V399.872H1230.37ZM1257.82 394.784C1257.82 392.096 1258.38 390.112 1259.5 388.832C1260.66 387.52 1262.4 386.864 1264.74 386.864C1265.28 386.864 1265.74 386.912 1266.13 387.008C1266.54 387.072 1266.86 387.152 1267.09 387.248V390.272H1266.66C1264.8 390.272 1263.57 390.64 1262.96 391.376C1262.35 392.112 1262.05 393.248 1262.05 394.784V422H1257.82V394.784ZM1254.27 399.872V396.512H1267.09V399.872H1254.27ZM1270.47 422V396.512H1274.69V422H1270.47ZM1274.69 407.744H1272.77C1272.97 404.992 1273.49 402.752 1274.36 401.024C1275.25 399.264 1276.37 397.968 1277.72 397.136C1279.09 396.304 1280.6 395.888 1282.23 395.888C1282.74 395.888 1283.21 395.952 1283.62 396.08C1284.07 396.176 1284.41 396.32 1284.63 396.512V400.304C1284.28 400.176 1283.88 400.096 1283.43 400.064C1282.98 400 1282.5 399.968 1281.99 399.968C1280.71 399.968 1279.61 400.16 1278.68 400.544C1277.78 400.896 1277.03 401.424 1276.42 402.128C1275.85 402.832 1275.41 403.664 1275.13 404.624C1274.84 405.552 1274.69 406.592 1274.69 407.744ZM1291.79 404.816H1287.57C1287.86 402.928 1288.45 401.328 1289.35 400.016C1290.24 398.672 1291.44 397.648 1292.95 396.944C1294.45 396.24 1296.24 395.888 1298.32 395.888C1300.59 395.888 1302.48 396.304 1303.99 397.136C1305.49 397.968 1306.61 399.136 1307.35 400.64C1308.08 402.112 1308.45 403.84 1308.45 405.824V415.856C1308.45 417.328 1308.51 418.544 1308.64 419.504C1308.8 420.464 1309.04 421.296 1309.36 422H1304.9C1304.58 421.36 1304.39 420.56 1304.32 419.6C1304.26 418.64 1304.23 417.696 1304.23 416.768V405.92C1304.23 403.872 1303.71 402.304 1302.69 401.216C1301.7 400.096 1300.11 399.536 1297.94 399.536C1296.11 399.536 1294.69 400.016 1293.67 400.976C1292.67 401.904 1292.05 403.184 1291.79 404.816ZM1304.85 406.496V409.664C1302 409.664 1299.67 409.808 1297.84 410.096C1296.05 410.352 1294.66 410.736 1293.67 411.248C1292.67 411.728 1291.99 412.304 1291.6 412.976C1291.22 413.648 1291.03 414.384 1291.03 415.184C1291.03 416.368 1291.47 417.296 1292.37 417.968C1293.3 418.608 1294.5 418.928 1295.97 418.928C1297.54 418.928 1298.95 418.56 1300.19 417.824C1301.44 417.088 1302.42 416.112 1303.12 414.896C1303.86 413.648 1304.23 412.304 1304.23 410.864H1306.48C1306.35 412.944 1305.94 414.736 1305.23 416.24C1304.56 417.712 1303.68 418.912 1302.59 419.84C1301.54 420.768 1300.4 421.456 1299.19 421.904C1297.97 422.352 1296.75 422.576 1295.54 422.576C1293.78 422.576 1292.23 422.304 1290.88 421.76C1289.57 421.216 1288.55 420.4 1287.81 419.312C1287.07 418.224 1286.71 416.88 1286.71 415.28C1286.71 413.52 1287.17 412.032 1288.1 410.816C1289.06 409.568 1290.48 408.624 1292.37 407.984C1294.16 407.376 1296.03 406.976 1297.99 406.784C1299.94 406.592 1302.23 406.496 1304.85 406.496ZM1315.38 422V396.512H1319.6V422H1315.38ZM1319.6 406.928H1317.58C1317.74 404.496 1318.22 402.464 1319.02 400.832C1319.82 399.2 1320.9 397.968 1322.24 397.136C1323.62 396.304 1325.17 395.888 1326.9 395.888C1328.59 395.888 1330.03 396.24 1331.22 396.944C1332.43 397.616 1333.36 398.624 1334 399.968C1334.64 401.312 1334.96 402.976 1334.96 404.96V422H1330.74V405.824C1330.74 404.544 1330.56 403.44 1330.21 402.512C1329.86 401.552 1329.31 400.816 1328.58 400.304C1327.84 399.76 1326.9 399.488 1325.74 399.488C1324.78 399.488 1323.92 399.712 1323.15 400.16C1322.42 400.576 1321.78 401.136 1321.23 401.84C1320.69 402.544 1320.27 403.344 1319.98 404.24C1319.73 405.104 1319.6 406 1319.6 406.928ZM1334.96 406.928H1332.46C1332.62 404.496 1333.12 402.464 1333.95 400.832C1334.78 399.2 1335.89 397.968 1337.26 397.136C1338.64 396.304 1340.22 395.888 1342.02 395.888C1343.74 395.888 1345.23 396.24 1346.48 396.944C1347.73 397.616 1348.67 398.624 1349.31 399.968C1349.98 401.312 1350.32 402.976 1350.32 404.96V422H1346.1V405.824C1346.1 404.544 1345.92 403.44 1345.57 402.512C1345.22 401.552 1344.67 400.816 1343.94 400.304C1343.2 399.76 1342.26 399.488 1341.1 399.488C1340.14 399.488 1339.28 399.712 1338.51 400.16C1337.78 400.576 1337.14 401.136 1336.59 401.84C1336.05 402.544 1335.63 403.344 1335.34 404.24C1335.09 405.104 1334.96 406 1334.96 406.928ZM1377.02 406.832L1374.62 409.088C1374.62 406.048 1373.98 403.696 1372.7 402.032C1371.45 400.368 1369.67 399.536 1367.37 399.536C1365 399.536 1363.19 400.384 1361.94 402.08C1360.7 403.744 1360.07 406.144 1360.07 409.28C1360.07 412.352 1360.73 414.736 1362.04 416.432C1363.35 418.096 1365.21 418.928 1367.61 418.928C1369.4 418.928 1370.9 418.496 1372.12 417.632C1373.37 416.768 1374.22 415.456 1374.66 413.696H1379.08C1378.38 416.672 1377 418.896 1374.95 420.368C1372.94 421.84 1370.49 422.576 1367.61 422.576C1365.14 422.576 1363.02 422.048 1361.22 420.992C1359.46 419.936 1358.1 418.416 1357.14 416.432C1356.22 414.416 1355.75 412.032 1355.75 409.28C1355.75 406.4 1356.22 403.968 1357.14 401.984C1358.1 400 1359.45 398.496 1361.18 397.472C1362.94 396.416 1365 395.888 1367.37 395.888C1369.77 395.888 1371.82 396.416 1373.51 397.472C1375.24 398.528 1376.57 400.032 1377.5 401.984C1378.42 403.904 1378.89 406.224 1378.89 408.944V410H1357.53V406.832H1377.02ZM1406.13 422L1400.61 402.944L1399.94 399.44H1400.18L1399.46 402.944L1393.98 422H1388.75L1381.17 396.512H1385.73L1390.96 416.288L1391.73 419.504H1391.44L1392.21 416.288L1398.02 396.512H1402.58L1408.38 416.288L1409.1 419.456H1408.82L1409.49 416.288L1414.72 396.512H1419.09L1411.46 422H1406.13ZM1433.04 422.576C1430.61 422.576 1428.51 422.048 1426.75 420.992C1425.02 419.936 1423.7 418.416 1422.77 416.432C1421.84 414.416 1421.38 412.032 1421.38 409.28C1421.38 406.4 1421.84 403.968 1422.77 401.984C1423.73 400 1425.09 398.496 1426.85 397.472C1428.61 396.416 1430.67 395.888 1433.04 395.888C1435.47 395.888 1437.55 396.432 1439.28 397.52C1441.04 398.576 1442.38 400.112 1443.31 402.128C1444.24 404.112 1444.7 406.496 1444.7 409.28C1444.7 412.128 1444.22 414.544 1443.26 416.528C1442.34 418.512 1440.99 420.016 1439.23 421.04C1437.5 422.064 1435.44 422.576 1433.04 422.576ZM1433.04 418.928C1435.41 418.928 1437.22 418.096 1438.46 416.432C1439.74 414.768 1440.38 412.384 1440.38 409.28C1440.38 406.176 1439.74 403.776 1438.46 402.08C1437.22 400.384 1435.41 399.536 1433.04 399.536C1430.67 399.536 1428.85 400.384 1427.57 402.08C1426.32 403.744 1425.7 406.144 1425.7 409.28C1425.7 412.352 1426.34 414.736 1427.62 416.432C1428.9 418.096 1430.7 418.928 1433.04 418.928ZM1450.14 422V396.512H1454.37V422H1450.14ZM1454.37 407.744H1452.45C1452.64 404.992 1453.17 402.752 1454.03 401.024C1454.93 399.264 1456.05 397.968 1457.39 397.136C1458.77 396.304 1460.27 395.888 1461.9 395.888C1462.41 395.888 1462.88 395.952 1463.29 396.08C1463.74 396.176 1464.08 396.32 1464.3 396.512V400.304C1463.95 400.176 1463.55 400.096 1463.1 400.064C1462.65 400 1462.17 399.968 1461.66 399.968C1460.38 399.968 1459.28 400.16 1458.35 400.544C1457.45 400.896 1456.7 401.424 1456.09 402.128C1455.52 402.832 1455.09 403.664 1454.8 404.624C1454.51 405.552 1454.37 406.592 1454.37 407.744ZM1468.05 422V387.44H1472.27V422H1468.05ZM1471.55 408.176L1483.26 396.512H1488.45L1476.54 408.176H1471.55ZM1471.55 408.176L1476.5 407.504L1489.12 422H1483.74L1471.55 408.176Z" fill="#C8C8C8"/>
</g>
<defs>
<filter id="filter0_f_29_2" x="-222" y="-185" width="1978" height="1365" filterUnits="userSpaceOnUse" color-interpolation-filters="sRGB">
<feFlood flood-opacity="0" result="BackgroundImageFix"/>
<feBlend mode="normal" in="SourceGraphic" in2="BackgroundImageFix" result="shape"/>
<feGaussianBlur stdDeviation="100" result="effect1_foregroundBlur_29_2"/>
</filter>
<filter id="filter1_f_29_2" x="-222" y="-185" width="1978" height="1365" filterUnits="userSpaceOnUse" color-interpolation-filters="sRGB">
<feFlood flood-opacity="0" result="BackgroundImageFix"/>
<feBlend mode="normal" in="SourceGraphic" in2="BackgroundImageFix" result="shape"/>
<feGaussianBlur stdDeviation="100" result="effect1_foregroundBlur_29_2"/>
</filter>
<filter id="filter2_f_29_2" x="-203" y="-96" width="1085.16" height="819" filterUnits="userSpaceOnUse" color-interpolation-filters="sRGB">
<feFlood flood-opacity="0" result="BackgroundImageFix"/>
<feBlend mode="normal" in="SourceGraphic" in2="BackgroundImageFix" result="shape"/>
<feGaussianBlur stdDeviation="100" result="effect1_foregroundBlur_29_2"/>
</filter>
<clipPath id="clip0_29_2">
<rect width="2560" height="640" fill="white"/>
</clipPath>
</defs>
</svg>
